<?xml version="1.0" encoding="utf-8"?>
<svg version="1.0" xmlns="http://www.w3.org/2000/svg" width="1024.000000pt" height="1024.000000pt" viewBox="0 0 1024.000000 1024.000000" preserveAspectRatio="xMidYMid meet">
  <g transform="translate(0.000000,1024.000000) scale(0.100000,-0.100000)" fill="#000000" stroke="none">
    <path d="M4036 8488 c5 -7 52 -70 105 -140 106 -138 339 -463 339 -472 0 -3 -62 -6 -137 -6 -701 0 -1563 -222 -2316 -596 -232 -115 -224 -107 -135 -134 191 -58 462 -175 673 -292 117 -64 395 -244 395 -255 0 -3 -49 -103 -108 -222 -247 -494 -391 -969 -458 -1511 -23 -183 -26 -729 -6 -915 33 -295 90 -559 179 -823 64 -192 90 -255 102 -250 5 2 91 73 192 158 215 182 542 449 549 450 3 0 11 -21 18 -46 7 -25 33 -98 58 -162 202 -515 563 -1055 943 -1413 58 -55 108 -99 111 -99 3 0 26 28 50 63 164 234 446 515 724 722 431 321 956 578 1726 848 226 79 771 257 788 257 27 0 524 -144 606 -176 18 -7 19 -3 12 92 -21 293 -85 589 -182 851 -74 201 -226 489 -360 685 -42 62 -61 104 -94 210 -56 178 -173 472 -259 649 -227 468 -496 857 -829 1201 -683 702 -1578 1164 -2567 1323 -116 18 -128 19 -119 3z m1599 -2768 c575 -211 824 -303 888 -327 65 -24 68 -27 62 -52 -14 -59 -81 -159 -154 -231 -86 -85 -156 -129 -263 -168 -64 -23 -89 -26 -198 -26 -158 -1 -242 24 -359 104 -206 140 -321 388 -291 625 14 111 37 178 59 170 9 -4 124 -47 256 -95z m1548 -516 c186 -93 460 -275 582 -385 157 -144 279 -369 334 -614 20 -90 48 -351 39 -360 -2 -3 -53 24 -112 59 -259 156 -498 212 -1011 236 -291 13 -658 12 -595 -3 25 -5 180 -43 345 -83 165 -40 398 -94 518 -121 120 -26 214 -49 210 -50 -14 -4 -945 -285 -1016 -306 -37 -11 -69 -18 -70 -16 -2 2 -83 142 -179 311 l-176 307 92 88 c50 48 290 284 533 525 243 241 444 438 448 438 3 0 29 -12 58 -26z" style="fill: rgb(255, 255, 255);"/>
  </g>
</svg>