<?xml version="1.0" encoding="utf-8"?>
<svg version="1.0" xmlns="http://www.w3.org/2000/svg" width="891.000000pt" height="908.000000pt" viewBox="0 0 891.000000 908.000000" preserveAspectRatio="xMidYMid meet">
  <g transform="translate(0.000000,908.000000) scale(0.100000,-0.100000)" fill="#000000" stroke="none">
    <path d="M2970 8994 c0 -4 76 -108 168 -233 180 -241 396 -541 412 -571 9 -17 5 -19 -43 -24 -28 -3 -151 -8 -272 -10 -897 -21 -1921 -295 -2945 -788 -194 -93 -267 -136 -254 -147 5 -4 79 -32 164 -61 291 -99 663 -271 920 -425 185 -112 401 -255 406 -269 3 -7 -44 -113 -104 -236 -318 -656 -471 -1101 -582 -1699 -55 -297 -70 -439 -81 -773 -20 -654 16 -1035 146 -1558 63 -254 196 -655 228 -687 10 -10 84 46 361 277 438 365 635 524 641 519 2 -3 25 -65 51 -139 214 -616 647 -1324 1117 -1827 98 -105 325 -323 336 -323 3 0 33 37 66 83 276 379 675 761 1113 1065 683 476 1531 845 3030 1318 l174 55 131 -35 c151 -40 544 -155 631 -186 33 -11 62 -18 65 -15 2 3 -1 72 -7 153 -34 427 -138 864 -294 1235 -92 217 -261 532 -388 722 -82 123 -107 176 -174 371 -356 1045 -860 1871 -1557 2548 -885 862 -2005 1425 -3262 1641 -150 25 -197 30 -197 19z m2439 -3808 c872 -322 943 -349 954 -367 27 -44 -69 -196 -212 -339 -119 -118 -218 -181 -356 -227 -74 -24 -93 -26 -245 -26 -243 1 -345 33 -517 162 -289 218 -420 585 -333 926 23 92 35 108 69 102 14 -2 302 -106 640 -231z m1772 -586 c279 -141 668 -408 809 -556 229 -241 376 -568 424 -944 26 -207 31 -300 16 -300 -7 0 -72 33 -144 74 -384 218 -670 283 -1391 316 -262 12 -735 13 -735 2 0 -8 662 -169 1125 -273 149 -34 274 -64 278 -68 4 -4 -77 -33 -180 -64 -103 -31 -420 -126 -703 -211 -283 -86 -524 -156 -535 -156 -16 0 -68 83 -250 401 -127 221 -230 407 -230 415 0 17 1405 1404 1423 1404 7 0 49 -18 93 -40z" style="fill: rgb(255, 255, 255);"/>
  </g>
</svg>